<?xml version="1.0" encoding="UTF-8"?>
<svg xmlns="http://www.w3.org/2000/svg" viewBox="0 0 256 256">
  <defs>
    <linearGradient id="g" x1="0" y1="0" x2="1" y2="1">
      <stop offset="0" stop-color="#25D366"/>
      <stop offset="1" stop-color="#128C7E"/>
    </linearGradient>
  </defs>
  <circle cx="128" cy="128" r="120" fill="url(#g)"/>
  <path fill="#fff" d="M181.7 74.3c-29.7-29.7-77.8-29.7-107.5 0-24.1 24.1-28.9 60.3-14.6 90L56 200l36.7-3.6c28.4 15 63.9 10.3 87.3-13.1 29.7-29.7 29.7-77.8 0-107.5zm-15.6 91.9c-6.7 6.7-14.7 11.6-23.7 14.2-9.7 2.9-20 3-29.7.3-9.2-2.6-17.5-7.5-24.4-14.3-6.9-6.9-11.8-15.2-14.4-24.4-2.7-9.7-2.6-19.9.3-29.7 2.6-8.9 7.5-17 14.2-23.7 20.6-20.6 54.1-20.6 74.7 0 20.6 20.6 20.6 54.1 0 74.7zm-9.1-22.9c-1.2-.6-7.3-3.6-8.4-4-1.1-.4-1.9-.6-2.7.6-.8 1.2-3.1 4-3.8 4.8-.7.8-1.4.9-2.6.3-1.2-.6-5-1.8-9.5-5.8-3.5-3.1-5.8-7-6.5-8.2-.7-1.2-.1-1.9.5-2.5.5-.5 1.2-1.4 1.8-2.1.6-.7.8-1.2 1.2-2 .4-.8.2-1.5-.1-2.1-.3-.6-2.7-6.5-3.7-8.9-.9-2.2-1.9-1.9-2.7-1.9-.7 0-1.5-.1-2.3-.1-.8 0-2.1.3-3.2 1.5-1.1 1.2-4.2 4.1-4.2 10 0 5.9 4.3 11.6 4.9 12.4.6.8 8.4 12.9 20.3 18.1 11.9 5.2 11.9 3.5 14 3.3 2.1-.2 6.9-2.8 7.9-5.5 1-2.7 1-5 .7-5.5-.3-.5-1.1-.8-2.3-1.4z"/>
</svg>
